# xmcd CD database file
#
# Track frame offsets:
#	150
#	32970
#	69070
#	89799
#
# Disc length: 1755 seconds
#
# Revision: 0
# Processed by: cddbd v1.5.1PL0 Copyright (c) Steve Scherf et al.
# Submitted via: CDex 1.51
#
DISCID=2f06d904
DTITLE=Eyes Closed - Songs Inspired By Phi (EP)
DYEAR=2005
DGENRE=Jazz
TTITLE0=Just Another
TTITLE1=This Is Our Voice
TTITLE2=Fall Away
TTITLE3=The End
EXTD=YEAR: 2005
EXTT0=
EXTT1=
EXTT2=
EXTT3=
PLAYORDER=
